<?xml version="1.0" standalone="no"?>
<!DOCTYPE svg PUBLIC "-//W3C//DTD SVG 20010904//EN"
 "http://www.w3.org/TR/2001/REC-SVG-20010904/DTD/svg10.dtd">
<svg version="1.0" xmlns="http://www.w3.org/2000/svg"
 width="512.000000pt" height="512.000000pt" viewBox="0 0 512.000000 512.000000"
 preserveAspectRatio="xMidYMid meet">

<g transform="translate(0.000000,512.000000) scale(0.100000,-0.100000)"
fill="#000000" stroke="none">
<path d="M415 4546 c-37 -16 -70 -52 -84 -89 -8 -20 -11 -598 -11 -1898 0
-2065 -5 -1911 66 -1965 l37 -29 2138 0 2138 0 27 21 c15 11 37 33 48 48 l21
27 0 1898 0 1898 -29 37 c-54 71 126 66 -2208 66 -1739 -1 -2118 -3 -2143 -14z
m4225 -386 l0 -240 -2080 0 -2080 0 0 240 0 240 2080 0 2080 0 0 -240z m0
-1920 l0 -1520 -2080 0 -2080 0 0 1520 0 1520 2080 0 2080 0 0 -1520z"/>
<path d="M919 4227 c-44 -34 -47 -89 -7 -127 21 -20 33 -20 688 -20 655 0 667
0 688 20 40 38 37 93 -7 127 -23 18 -1339 18 -1362 0z"/>
<path d="M3469 4211 c-16 -16 -29 -39 -29 -51 0 -30 53 -80 85 -80 36 0 75 41
75 80 0 39 -39 80 -75 80 -16 0 -38 -12 -56 -29z"/>
<path d="M3789 4211 c-16 -16 -29 -39 -29 -51 0 -30 53 -80 85 -80 36 0 75 41
75 80 0 39 -39 80 -75 80 -16 0 -38 -12 -56 -29z"/>
<path d="M4109 4211 c-16 -16 -29 -39 -29 -51 0 -30 53 -80 85 -80 36 0 75 41
75 80 0 39 -39 80 -75 80 -16 0 -38 -12 -56 -29z"/>
<path d="M1697 3546 c-54 -20 -111 -60 -141 -99 -127 -167 -76 -396 109 -487
68 -33 188 -35 256 -3 64 29 125 87 157 147 23 44 27 63 27 141 0 73 -4 99
-22 135 -29 59 -94 124 -152 152 -57 28 -177 35 -234 14z m183 -168 c97 -67
90 -210 -12 -268 -47 -27 -115 -24 -157 7 -42 31 -74 105 -66 152 18 108 148
168 235 109z"/>
<path d="M2482 2842 c-30 -11 -71 -36 -92 -57 -21 -20 -97 -133 -170 -249
l-133 -213 -61 61 c-68 69 -113 88 -204 87 -67 0 -129 -29 -174 -79 -28 -31
-719 -1126 -757 -1199 -17 -34 -13 -62 14 -88 l24 -25 1631 0 1631 0 24 25
c27 26 31 54 14 88 -44 84 -729 1170 -758 1200 -52 55 -107 78 -184 78 -83 0
-143 -27 -201 -92 l-44 -49 -131 208 c-158 253 -157 251 -220 286 -68 36 -139
43 -209 18z m147 -166 c10 -9 190 -292 401 -630 255 -409 392 -618 408 -625
12 -6 32 -11 43 -11 30 0 69 44 69 78 0 19 -63 129 -205 356 l-205 328 25 42
c39 67 79 100 120 99 20 -1 45 -7 56 -15 11 -7 166 -247 345 -533 l325 -520
-726 -3 c-399 -1 -1051 -1 -1450 0 l-726 3 322 515 c176 283 330 523 341 533
12 10 37 17 63 17 51 0 70 -15 118 -91 l34 -55 -203 -325 c-112 -178 -203
-332 -204 -342 -1 -62 67 -106 119 -77 10 5 193 289 406 630 258 413 397 626
414 636 30 17 86 12 110 -10z"/>
</g>
</svg>
